<svg id="Group_21" data-name="Group 21" xmlns="http://www.w3.org/2000/svg" width="36" height="29.098" viewBox="0 0 36 29.098">
  <g id="Union_1" data-name="Union 1" transform="translate(0 0)" fill="#bbcadc" stroke-linejoin="round">
    <path d="M 34.00019836425781 10.097900390625 L 1.999799966812134 10.097900390625 C 1.448510050773621 10.097900390625 1 9.64939022064209 1 9.098100662231445 L 1 6.098400115966797 L 1 3.370561361312866 C 1.015371561050415 3.219106912612915 1.136897563934326 2.272678136825562 1.810809969902039 1.675350308418274 C 2.53508734703064 1.032764792442322 3.453270435333252 1.001432180404663 3.522970914840698 1.000023245811462 L 3.533190011978149 1.000330328941345 L 3.534300088882446 1.000000357627869 L 11.01940250396729 1.000000357627869 L 13.48939037322998 3.76412034034729 L 13.78756999969482 4.097800254821777 L 14.23505973815918 4.097800254821777 L 34.00019836425781 4.097800254821777 C 34.55149078369141 4.097800254821777 35 4.54671049118042 35 5.09850025177002 L 35 9.098100662231445 C 35 9.64939022064209 34.55149078369141 10.097900390625 34.00019836425781 10.097900390625 Z" stroke="none"/>
    <path d="M 34.00019836425781 9.097900390625 L 34 9.097900390625 L 34.00019836425781 5.097800254821777 L 14.23505973815918 5.097800254821777 C 13.66561031341553 5.097800254821777 13.12316036224365 4.85506010055542 12.74372959136963 4.430440425872803 L 10.57191562652588 2.000000238418579 L 3.537856101989746 2.000000238418579 C 3.482635974884033 2.002660751342773 2.907014131546021 2.03962516784668 2.474119901657104 2.423690319061279 C 2.154769659042358 2.706751823425293 2.029483318328857 3.206641435623169 2 3.426089525222778 L 2 6.098400115966797 L 1.999799966812134 9.097900390625 L 34.00019836425781 9.097900390625 M 34.00019836425781 11.097900390625 L 1.999799966812134 11.097900390625 C 0.8955000042915344 11.097900390625 0 10.20240020751953 0 9.098100662231445 L 0 6.098400115966797 L 0 3.330000400543213 C 0 3.330000400543213 0.07829999923706055 1.874700307846069 1.147500038146973 0.9270002841949463 C 2.170105218887329 0.01973944716155529 3.419939517974854 -4.066604742547497e-05 3.526930093765259 -4.066604742547497e-05 C 3.531805038452148 -4.066604742547497e-05 3.534300088882446 3.105163557393098e-07 3.534300088882446 3.105163557393098e-07 L 11.46689987182617 3.105163557393098e-07 L 14.23505973815918 3.097800254821777 L 34.00019836425781 3.097800254821777 C 35.10449981689453 3.097800254821777 36 3.993300199508667 36 5.09850025177002 L 36 9.098100662231445 C 36 10.20240020751953 35.10449981689453 11.097900390625 34.00019836425781 11.097900390625 Z" stroke="none" fill="#4a596b"/>
  </g>
  <g id="Rectangle_20" data-name="Rectangle 20" transform="translate(0 7.098)" fill="#a2b2c3" stroke="#4a596b" stroke-width="2">
    <rect width="36" height="22" rx="2" stroke="none"/>
    <rect x="1" y="1" width="34" height="20" rx="1" fill="none"/>
  </g>
  <rect id="Rectangle_22" data-name="Rectangle 22" width="32" height="2" transform="translate(2 25.098)" fill="#95a4b6"/>
</svg>
