<?xml version="1.0" encoding="UTF-8"?>
<svg width="512px" height="512px" viewBox="0 0 512 512" version="1.1" xmlns="http://www.w3.org/2000/svg" xmlns:xlink="http://www.w3.org/1999/xlink">
    <!-- Generator: Sketch 52.6 (67491) - http://www.bohemiancoding.com/sketch -->
    <title>Cheema-Produce-Ltd</title>
    <desc>Created with Sketch.</desc>
    <defs>
        <path d="M56.4182795,69 L55.8520696,69 L56.6126537,67.4549809 L56.5408344,67.5305466 C56.3693405,67.8570892 56.1361403,68.3469077 55.8412351,69 L52.4612732,69 C52.4642611,68.9763592 52.4672224,68.9527604 52.4701573,68.9292035 C53.2762578,62.459042 52.7409389,53.8888184 50.8642005,43.2185329 L47.8166729,38.2369571 C44.3845805,36.0095215 41.6789311,34.4606263 39.6997246,33.5902713 C27.8001973,28.3574609 17.927571,24.6334144 12.9541575,21.3155413 C7.00515614,17.3468321 3.03335528,12.7615523 1.03875492,7.55970195 C12.0109002,11.2490107 20.0482756,14.4795465 25.1508811,17.2513095 C30.2657213,20.0297185 36.5959456,24.6091922 44.141554,30.9897307 L45.6300067,32.6385873 L49.4453111,38.0876908 L45.9311931,32.490585 C39.008031,25.5537608 32.7731685,20.5612297 27.2266056,17.5129916 C21.6920699,14.4713634 12.9623904,11.1525673 1.03756709,7.55660344 C0.949071587,7.32570841 0.864471226,7.09359871 0.783766007,6.86027435 C10.8848958,4.57106953 21.2662859,6.0435554 31.9279362,11.277732 C42.5895866,16.5119085 48.4820504,24.9889919 49.6053275,36.7089822 L50.0563081,37.7224263 L51.8186067,39.5464664 C51.9895621,36.3699521 52.2067456,33.9975311 52.4701573,32.4292035 C52.6712168,31.2321149 53.1616773,29.6941607 53.9415387,27.8153412 L54.3709519,25.6504944 C53.5588364,21.5930361 55.2968523,17.0544974 59.5849994,12.0348782 C63.8731466,7.01525904 68.4586981,3.27259462 73.341654,0.806884956 C73.0936181,3.14142056 71.7818605,5.94450818 69.4063812,9.21614782 C67.5052216,11.8345284 63.4073625,16.1279364 58.5524099,21.5379265 C57.7449028,22.4377511 56.6816468,23.7812958 55.362642,25.5685606 L54.5007003,28.1980713 C53.9261017,31.3905057 53.5750293,35.6002932 53.4474831,40.8274336 C53.3571783,44.5283367 54.3919717,50.7208296 54.7505843,56.6548673 C54.8907544,58.974291 54.8954753,62.3701999 54.7647471,66.8425941 L59.1809524,60.7898249 C63.4984127,47.4487073 72.3492063,39.1643036 85.7333333,35.9366138 C99.1174603,32.7089241 111.206349,33.7848207 122,39.1643036 C121.866812,39.3836698 121.730484,39.60114 121.591016,39.8167144 C106.115201,41.0673257 94.5943861,43.0016486 87.0285714,45.6196831 C79.4488832,48.2425182 70.490153,53.5144115 60.152381,61.4353628 L55.5047275,67.0975742 L55.6737541,67.0490309 L60.4761905,61.7581318 L62.7428571,59.8215179 C73.6797201,52.9391714 82.6384503,48.3128161 89.6190476,45.942452 C96.5854909,43.5768942 107.242041,41.5361756 121.588698,39.8202962 C117.988565,45.383054 112.297094,49.6831554 104.514286,52.7206005 C98.0427974,55.2462684 85.9414491,56.9280964 71.1619048,59.8215179 C68.7036752,60.3027705 65.249707,61.3786671 60.8,63.0492077 L56.8966126,67.1562097 C56.8786901,67.3963326 56.7192458,68.0109294 56.4182795,69 Z M56.0027421,22.6797445 L56.4924192,21.7181359 C59.1843198,17.4438671 61.5245367,14.0928287 63.5130698,11.6650207 C65.501603,9.23721281 68.7574156,5.7560368 73.2805076,1.2214927 C68.3223868,6.02200035 64.7670079,9.74397916 62.6143711,12.3874292 C60.4617343,15.0308791 58.2078256,18.4777724 55.8526449,22.7281091 L54.8770591,25.5157688 L56.0027421,22.6797445 Z" id="path-1"></path>
    </defs>
    <g id="Cheema-Produce-Ltd" stroke="none" stroke-width="1" fill="none" fill-rule="evenodd">
        <g id="Cheema-Produce-Ltd." transform="translate(40.000000, 106.000000)">
            <path d="M58.2,151.8 C53.666644,146.266639 48.0667,143.5 41.4,143.5 C38.466652,143.5 35.7500125,144.033328 33.25,145.1 C30.7499875,146.166672 28.600009,147.616658 26.8,149.45 C24.999991,151.283343 23.5833385,153.466654 22.55,156 C21.5166615,158.533346 21,161.266652 21,164.2 C21,167.200015 21.5166615,169.966654 22.55,172.5 C23.5833385,175.033346 25.0166575,177.233324 26.85,179.1 C28.6833425,180.966676 30.833321,182.433328 33.3,183.5 C35.766679,184.566672 38.433319,185.1 41.3,185.1 C47.566698,185.1 53.199975,182.43336 58.2,177.1 L58.2,200.3 L56.2,201 C53.199985,202.066672 50.400013,202.849998 47.8,203.35 C45.199987,203.850003 42.633346,204.1 40.1,204.1 C34.899974,204.1 29.9166905,203.116677 25.15,201.15 C20.3833095,199.183324 16.1833515,196.416685 12.55,192.85 C8.9166485,189.283316 6.000011,185.050025 3.8,180.15 C1.599989,175.249976 0.5,169.900029 0.5,164.1 C0.5,158.299971 1.5833225,152.983358 3.75,148.15 C5.9166775,143.316643 8.8166485,139.150018 12.45,135.65 C16.0833515,132.149983 20.299976,129.416677 25.1,127.45 C29.900024,125.483324 34.933307,124.5 40.2,124.5 C43.200015,124.5 46.1499855,124.816664 49.05,125.45 C51.9500145,126.083337 54.999984,127.06666 58.2,128.4 L58.2,151.8 Z M68.9,119 L87,119 L87,157.2 C89.466679,154.199985 91.966654,152.183339 94.5,151.15 C97.033346,150.116662 99.999983,149.6 103.4,149.6 C109.866699,149.6 114.749984,151.383316 118.05,154.95 C121.350017,158.516685 123,163.333303 123,169.4 L123,202 L104.9,202 L104.9,176.1 C104.9,173.499987 104.700002,171.400008 104.3,169.8 C103.899998,168.199992 103.233338,166.966671 102.3,166.1 C100.699992,164.699993 98.766678,164 96.5,164 C93.433318,164 91.0833415,164.916658 89.45,166.75 C87.8166585,168.583343 87,171.199983 87,174.6 L87,202 L68.9,202 L68.9,119 Z M172.8,168.9 C172.199997,166.366654 170.966676,164.333341 169.1,162.8 C167.233324,161.266659 164.96668,160.5 162.3,160.5 C159.499986,160.5 157.216676,161.233326 155.45,162.7 C153.683325,164.166674 152.566669,166.23332 152.1,168.9 L172.8,168.9 Z M151.6,179.4 C151.6,187.200039 155.26663,191.1 162.6,191.1 C166.533353,191.1 169.49999,189.500016 171.5,186.3 L189,186.3 C185.466649,198.033392 176.633404,203.9 162.5,203.9 C158.166645,203.9 154.200018,203.250007 150.6,201.95 C146.999982,200.649994 143.91668,198.800012 141.35,196.4 C138.783321,193.999988 136.800007,191.13335 135.4,187.8 C133.999993,184.46665 133.3,180.733354 133.3,176.6 C133.3,172.333312 133.96666,168.483351 135.3,165.05 C136.63334,161.61665 138.533321,158.700012 141,156.3 C143.466679,153.899988 146.449983,152.050007 149.95,150.75 C153.450018,149.449994 157.399978,148.8 161.8,148.8 C166.133355,148.8 170.033316,149.449994 173.5,150.75 C176.966684,152.050007 179.899988,153.933321 182.3,156.4 C184.700012,158.866679 186.533327,161.883316 187.8,165.45 C189.066673,169.016685 189.7,173.033311 189.7,177.5 L189.7,179.4 L151.6,179.4 Z M264.7,150.7 L282.8,150.7 L282.8,157 C287.733358,152.266643 293.266636,149.9 299.4,149.9 C307.000038,149.9 312.79998,153.099968 316.8,159.5 C320.866687,153.033301 326.666629,149.8 334.2,149.8 C336.600012,149.8 338.866656,150.149997 341,150.85 C343.133344,151.550004 344.966659,152.649993 346.5,154.15 C348.033341,155.650008 349.249996,157.599988 350.15,160 C351.050005,162.400012 351.5,165.299983 351.5,168.7 L351.5,202 L333.4,202 L333.4,176.7 C333.4,174.099987 333.216668,171.966675 332.85,170.3 C332.483332,168.633325 331.950003,167.333338 331.25,166.4 C330.549997,165.466662 329.733338,164.833335 328.8,164.5 C327.866662,164.166665 326.866672,164 325.8,164 C319.999971,164 317.1,168.233291 317.1,176.7 L317.1,202 L299,202 L299,176.7 C299,174.099987 298.833335,171.950009 298.5,170.25 C298.166665,168.549992 297.683336,167.200005 297.05,166.2 C296.416664,165.199995 295.600005,164.516669 294.6,164.15 C293.599995,163.783332 292.43334,163.6 291.1,163.6 C289.966661,163.6 288.900005,163.766665 287.9,164.1 C286.899995,164.433335 286.016671,165.083329 285.25,166.05 C284.48333,167.016672 283.883336,168.349992 283.45,170.05 C283.016665,171.750009 282.8,173.966653 282.8,176.7 L282.8,202 L264.7,202 L264.7,150.7 Z M380.7,176.2 C380.7,177.866675 380.999997,179.41666 381.6,180.85 C382.200003,182.283341 383.016662,183.533328 384.05,184.6 C385.083338,185.666672 386.31666,186.499997 387.75,187.1 C389.18334,187.700003 390.733325,188 392.4,188 C394.000008,188 395.51666,187.700003 396.95,187.1 C398.383341,186.499997 399.616662,185.666672 400.65,184.6 C401.683338,183.533328 402.516664,182.300007 403.15,180.9 C403.783337,179.499993 404.1,178.000008 404.1,176.4 C404.1,174.799992 403.783337,173.283341 403.15,171.85 C402.516664,170.41666 401.683338,169.166672 400.65,168.1 C399.616662,167.033328 398.383341,166.200003 396.95,165.6 C395.51666,164.999997 394.000008,164.7 392.4,164.7 C390.733325,164.7 389.18334,164.999997 387.75,165.6 C386.31666,166.200003 385.083338,167.033328 384.05,168.1 C383.016662,169.166672 382.200003,170.383327 381.6,171.75 C380.999997,173.116674 380.7,174.599992 380.7,176.2 Z M403.5,150.7 L421.7,150.7 L421.7,202 L403.5,202 L403.5,196.3 C399.633314,201.166691 394.400033,203.6 387.8,203.6 C384.066648,203.6 380.633349,202.916674 377.5,201.55 C374.366651,200.183327 371.633345,198.266679 369.3,195.8 C366.966655,193.333321 365.150007,190.43335 363.85,187.1 C362.549994,183.76665 361.9,180.133353 361.9,176.2 C361.9,172.533315 362.533327,169.050017 363.8,165.75 C365.066673,162.449984 366.833322,159.566679 369.1,157.1 C371.366678,154.633321 374.066651,152.683341 377.2,151.25 C380.333349,149.81666 383.799981,149.1 387.6,149.1 C394.000032,149.1 399.299979,151.333311 403.5,155.8 L403.5,150.7 Z" id="Combined-Shape" fill="#609621"></path>
            <g id="Group-2" transform="translate(172.000000, 82.000000)">
                <mask id="mask-2" fill="white">
                    <use xlink:href="#path-1"></use>
                </mask>
                <use id="Combined-Shape" fill="#609621" xlink:href="#path-1"></use>
            </g>
            <polyline id="Path-4" stroke="#609621" stroke-width="14" stroke-linecap="round" points="2 120 211 0 425.253444 120"></polyline>
            <text id="Produce-Ltd." fill="#4A4A4A" font-family="Avenir-Light, Avenir" font-size="76" font-weight="300">
                <tspan x="0" y="272">Produce Ltd.</tspan>
            </text>
            <text id="e" fill="#E1001C" font-family="Futura-Bold, Futura" font-size="100" font-weight="bold">
                <tspan x="194" y="202">e</tspan>
            </text>
        </g>
    </g>
</svg>