<svg xmlns="http://www.w3.org/2000/svg" xmlns:xlink="http://www.w3.org/1999/xlink" width="250" height="250" viewBox="0 0 250 250">
  <defs>
    <linearGradient id="linear-gradient" x1="0.02" y1="0.028" x2="1" y2="1" gradientUnits="objectBoundingBox">
      <stop offset="0"/>
      <stop offset="1" stop-color="#717171"/>
    </linearGradient>
    <clipPath id="clip-path">
      <rect width="67.35" height="66.386" fill="none"/>
    </clipPath>
  </defs>
  <g id="welift" transform="translate(-1547 -869)">
    <g id="Group_84" data-name="Group 84">
      <rect id="Rectangle_57" data-name="Rectangle 57" width="250" height="250" rx="15" transform="translate(1547 869)" fill="url(#linear-gradient)"/>
      <g id="Group_82" data-name="Group 82" transform="translate(1572.512 585.386)">
        <text id="We" transform="translate(77.509 430.911)" fill="#00a9de" font-size="43" font-family="Helvetica-Bold, Helvetica" font-weight="700"><tspan x="0" y="0">We</tspan></text>
        <text id="Lift" transform="translate(151.345 430.911)" fill="#b1babd" font-size="43" font-family="Helvetica"><tspan x="0" y="0">Lift</tspan></text>
        <g id="Icon" transform="translate(-8.512 375.614)" clip-path="url(#clip-path)">
          <path id="Path_2708" data-name="Path 2708" d="M810.876-150.859l2.2,3.18c.039,0,6.59.53,7.959.519s2.979-2.431,2.979-2.431.593-6.678,0-7.365-2.979-2.608-2.979-2.608-11.745-3.378-13.944-2.464-9,7.313-9,7.313c-.066-.2-10.9,14.448-10.9,14.448.092-.177-6.391,21.459-6.391,21.459-.02,0,10.919,11.1,10.919,11.1a48.339,48.339,0,0,0,10.263,7.74c5.34,2.764,6.061,2.884,11.1,3.714s4.984.434,9.042-.4a19.1,19.1,0,0,0,7.192-3.318h3.176c5.131,6.1,14.337,0,14.337,0-.23.066.808-2.576.808-2.576l.518-19.961a32.133,32.133,0,0,0-4.14-4.422,8.853,8.853,0,0,0-3.642-1.866c-.962-.756-4.915,0-4.915,0l-5.505,1.866-4.081,2.8a34.172,34.172,0,0,0-5.453-4.665c-2.722-1.74-8.916-3.333-11.752-2.293s-5.026,4.159-5.026,4.159l-3.714-.526c.039.131,1.132-.951,2.06-2.917a11.5,11.5,0,0,0,1.654-4.947,32.665,32.665,0,0,0,0-6.721l.728-3.489c.085-.125,2.73-4.06,2.73-4.06l1.568-1.268Z" transform="translate(-780.797 162.186)" fill="#00a9de"/>
        </g>
      </g>
    </g>
  </g>
</svg>
